PathFileType	4	(X/Y/Z)	/Users/niels/Desktop/University/Third Semester/Perception and Action/Exam/Gymnastics Motion Tracking/Code for Gym Tracking/Analyzed Data/Webcam_Backflip/id8_2_baseline_Sports2D/id8_2_baseline_Sports2D_px_person00.trc
DataRate	CameraRate	NumFrames	NumMarkers	Units	OrigDataRate	OrigDataStartFrame	OrigNumFrames
29.81132075471698	29.81132075471698	11	22	m	29.81132075471698	0	159
Frame#	Time	Hip			RHip			RKnee			RAnkle			RBigToe			RSmallToe			RHeel			LHip			LKnee			LAnkle			LBigToe			LSmallToe			LHeel			Neck			Head			Nose			RShoulder			RElbow			RWrist			LShoulder			LElbow			LWrist		
		X1	Y1	Z1	X2	Y2	Z2	X3	Y3	Z3	X4	Y4	Z4	X5	Y5	Z5	X6	Y6	Z6	X7	Y7	Z7	X8	Y8	Z8	X9	Y9	Z9	X10	Y10	Z10	X11	Y11	Z11	X12	Y12	Z12	X13	Y13	Z13	X14	Y14	Z14	X15	Y15	Z15	X16	Y16	Z16	X17	Y17	Z17	X18	Y18	Z18	X19	Y19	Z19	X20	Y20	Z20	X21	Y21	Z21	X22	Y22	Z22
0	0.0	0.9979333379941357	-0.5876081190124325	0.0	0.9996658767691912	-0.5910837216915812	0.0	0.9857845526530012	-0.6864933408792024	0.0	0.9684288785595221	-0.7767096546539942	0.0	0.9892521961331656	-0.7923249914295468	0.0	0.9805751721474382	-0.7975270377853623	0.0	0.9614919955448904	-0.7888537366245835	0.0	0.9909897966604196	-0.5858766436440003	0.0	0.9840511255798874	-0.6830244201957132	0.0	0.9666948369905446	-0.7697708548120162	0.0	0.997916768900742	-0.7853835083319963	0.0	0.9927160752832136	-0.7871192628112457	0.0	0.9614885214785266	-0.7767123234117571	0.0	0.9927146655281588	-0.459221301497226	0.0	0.9909859550980292	-0.3967699040789654	0.0	1.006598115808053	-0.42278818020552406	0.0	0.9892432168908887	-0.4574953758860774	0.0	1.0082752046448336	-0.38467046686362494	0.0	1.009950581451884	-0.3274235280472219	0.0	0.9857806505445134	-0.4592355901486822	0.0	1.0030573900681432	-0.3968298126030514	0.0	1.001270763180645	-0.3465506060300975	0.0
1	0.03354430379746835	0.9961152447918468	-0.5845335179508243	0.0	0.9980332658333675	-0.5867072549109599	0.0	0.9852905677110864	-0.6838163388571914	0.0	0.9681466039081745	-0.7766361095352229	0.0	0.9933767282735462	-0.7930085815367722	0.0	0.9853949826390527	-0.7978376480768649	0.0	0.9610996605230469	-0.7897697743467311	0.0	0.9904769875113247	-0.5820818918810161	0.0	0.9836092632216331	-0.6808422978017482	0.0	0.966526791958908	-0.77019993859914	0.0	0.9982923058827629	-0.786651365473043	0.0	0.9925120862190278	-0.7868043273208214	0.0	0.9604741608488625	-0.7778700228727695	0.0	0.9929693484152078	-0.45520895797079747	0.0	0.9950543098873093	-0.39227771368853315	0.0	1.009310299390884	-0.41915278210327234	0.0	0.9911925016204687	-0.45484562046835836	0.0	1.0148948861199052	-0.3851020524267749	0.0	1.0225157478186995	-0.3265621203150615	0.0	0.9859702553602733	-0.4558231864522312	0.0	1.008887389806547	-0.3960027694811537	0.0	1.0140007134016091	-0.34291781580462194	0.0
2	0.0670886075949367	0.9941454802588348	-0.5814856428092307	0.0	0.9961641497047088	-0.5826268243798333	0.0	0.9847116701164941	-0.681219172962984	0.0	0.9679100956531818	-0.7762734457108078	0.0	0.99678285883548	-0.7933255380022345	0.0	0.989406333816548	-0.797760278557018	0.0	0.9607983883751933	-0.7902443309493193	0.0	0.9896566203535502	-0.578455929551669	0.0	0.9830131196818579	-0.6786331341910117	0.0	0.9663775729352801	-0.7701772249129989	0.0	0.9979357781153352	-0.7873473126312721	0.0	0.9917511163974123	-0.78615448175484	0.0	0.9595545096980274	-0.7784605573336725	0.0	0.9932175505958185	-0.4513934039607	0.0	0.99873215028987	-0.3881509352770395	0.0	1.012005868290195	-0.4156381346700042	0.0	0.9929275258436965	-0.4524502990009931	0.0	1.0219136527768653	-0.3862360403877113	0.0	1.0358739205031837	-0.3271601615180084	0.0	0.9862334850942679	-0.45255526332734947	0.0	1.0151379502896998	-0.39565951448990055	0.0	1.0274787748347451	-0.34100523741638944	0.0
3	0.10063291139240506	0.9918725949332149	-0.5786181258639745	0.0	0.9938732745277984	-0.5791643262563478	0.0	0.98391016802405	-0.6788892914995257	0.0	0.9677367483398962	-0.7754919680936134	0.0	0.9989579388772581	-0.7930631241600841	0.0	0.9920018848419092	-0.7971121566363367	0.0	0.9605654710932123	-0.7899752361144232	0.0	0.9882146532851981	-0.5752378336097321	0.0	0.9821287029659022	-0.6764954468830408	0.0	0.9663126519442506	-0.7694460123637955	0.0	0.9965441253827341	-0.7871568536071992	0.0	0.9902935287831233	-0.7849667615966263	0.0	0.9588179849266393	-0.7781346596586451	0.0	0.9934987676471126	-0.4480661581118959	0.0	1.0017396498158493	-0.3847631401331	0.0	1.0146897584675654	-0.41257127277104133	0.0	0.9942972675577457	-0.450547177011177	0.0	1.0295605733289943	-0.38872252955103254	0.0	1.0504866631962408	-0.3306181897900565	0.0	0.9865963537125838	-0.44967120484951245	0.0	1.022104961689829	-0.39643219584250466	0.0	1.0421325053394686	-0.34226927767587906	0.0
4	0.1341772151898734	0.9891773477464206	-0.5761628605623795	0.0	0.9910833615788983	-0.5765193649300371	0.0	0.9827503052767174	-0.6770130801993304	0.0	0.9676354548139395	-0.7743216223396567	0.0	0.9997414312627906	-0.7922182688754682	0.0	0.99299811268498	-0.7959613389271192	0.0	0.9603208625706544	-0.7889101750791836	0.0	0.9859785293770464	-0.5726279304150707	0.0	0.9809191930114921	-0.6745973151617188	0.0	0.966428337302017	-0.7680519813832664	0.0	0.994429167948504	-0.7861184285622752	0.0	0.9885464873684318	-0.78328392222574	0.0	0.9583722252311201	-0.7768954710395065	0.0	0.9939205545766552	-0.4455204728029607	0.0	1.0039659820454985	-0.38242069541463203	0.0	1.0173969187034686	-0.4104257670579583	0.0	0.9953032607442797	-0.44930133212547196	0.0	1.037836594969552	-0.3929991576592012	0.0	1.0663606077523664	-0.33789873605878196	0.0	0.9870761697390674	-0.4474451454181818	0.0	1.0299146175291611	-0.3989023906748833	0.0	1.0579665946167445	-0.3474429344285566	0.0
5	0.16772151898734178	0.9860376830122937	-0.5743013368905531	0.0	0.9878485240829213	-0.5746323757704511	0.0	0.9812037263115133	-0.6756442991866369	0.0	0.9676138616767846	-0.772923605469959	0.0	0.9994165701666842	-0.790986980920965	0.0	0.992762530439788	-0.794557071494377	0.0	0.9600215473299358	-0.7873231137035261	0.0	0.9830759406458772	-0.5706904116492935	0.0	0.979464400803514	-0.6730740033521571	0.0	0.9667769564306685	-0.7663532546193834	0.0	0.9924012233717772	-0.7846237149257471	0.0	0.9872845433121807	-0.7814601103894812	0.0	0.9583418037529546	-0.7751791855807086	0.0	0.9946502077456486	-0.4439002174544322	0.0	1.0055566108197382	-0.3812271742224988	0.0	1.0201523621567976	-0.40958910532702203	0.0	0.996155511377262	-0.44879121950319406	0.0	1.0464742202095045	-0.3994105916166936	0.0	1.082944641181549	-0.34961256773154564	0.0	0.9877538465636705	-0.44608902292012576	0.0	1.0384327630385557	-0.4035406330706914	0.0	1.0745229287500258	-0.3567795345223536	0.0
6	0.20126582278481012	0.982588337550195	-0.5731456063944853	0.0	0.9843613153574027	-0.573311440043307	0.0	0.9793849568068299	-0.6747608101660876	0.0	0.9676616415404224	-0.7715799463872453	0.0	0.998609853786206	-0.7896965529873177	0.0	0.9920147031645621	-0.7932243609924621	0.0	0.959696626317964	-0.7857156238270461	0.0	0.9798934756185345	-0.5694201838523499	0.0	0.9779054996831426	-0.6720333810248695	0.0	0.9673110794404838	-0.7648836848138958	0.0	0.9913226512957073	-0.7833121401165895	0.0	0.9871771708773251	-0.7800675162066494	0.0	0.9587631607661583	-0.7737158226821453	0.0	0.9958251801778993	-0.4431806209048908	0.0	1.0069123309472723	-0.38101631635841027	0.0	1.022925152293809	-0.41017007650537685	0.0	0.9971497925065202	-0.4490386436635343	0.0	1.0548551335351584	-0.4083463445975427	0.0	1.0990370767929365	-0.36619140777700143	0.0	0.988758690053131	-0.44572273842190496	0.0	1.0471232351090451	-0.4107396501408106	0.0	1.0908112030508048	-0.3705295536392839	0.0
7	0.23481012658227846	0.9790914565511283	-0.572794060319315	0.0	0.9809073600882297	-0.572481854582671	0.0	0.9774695573070975	-0.6743575247644531	0.0	0.967720163707123	-0.7706196603922896	0.0	0.9979338096978281	-0.7886778639769155	0.0	0.991385318302321	-0.7922472466845683	0.0	0.9594113566068705	-0.7845535611476332	0.0	0.9768689369292828	-0.5688585579994752	0.0	0.9763715051745679	-0.6715678313809014	0.0	0.9678684007206552	-0.7640893754458781	0.0	0.9915274982067875	-0.7827456220377812	0.0	0.9882782425963783	-0.7795757753578093	0.0	0.9594328883147664	-0.7731334940097712	0.0	0.9974350023404434	-0.44328697199328204	0.0	1.0084571458297005	-0.3814764370434247	0.0	1.0256585311071744	-0.41198092773625755	0.0	0.9984340665414451	-0.45004957042606586	0.0	1.0620196217662379	-0.42014654285366904	0.0	1.112892721534275	-0.38792523646723	0.0	0.9901621219431059	-0.4464039269825873	0.0	1.0550922925787902	-0.42073477871250314	0.0	1.1053390607839897	-0.38898091420485764	0.0
8	0.2683544303797468	0.9758386867170676	-0.5732759043794037	0.0	0.9777596520958258	-0.5722262520284326	0.0	0.9756078036637734	-0.674411470829669	0.0	0.9676822672005287	-0.7702892024406679	0.0	0.9976729555491902	-0.7881415585988979	0.0	0.9911419594582774	-0.7917810801816174	0.0	0.959191740412234	-0.7840738003413635	0.0	0.9743169600903246	-0.5690723866380456	0.0	0.9749352816574044	-0.6716879061488462	0.0	0.9682221968582335	-0.7641188581901349	0.0	0.9926423674910887	-0.7830672507986146	0.0	0.9900137066107451	-0.7800388295998565	0.0	0.9599692272400454	-0.7736248283237441	0.0	0.9993001961918314	-0.44417187608509356	0.0	1.0103433622299076	-0.38238109509061086	0.0	1.0282824139715485	-0.4146537432180282	0.0	0.9999085372661405	-0.45182494130711254	0.0	1.0669217131863944	-0.43480840156696454	0.0	1.1226407429055745	-0.41474778027950515	0.0	0.9918928312886179	-0.4481426052938381	0.0	1.061345971452849	-0.4334565613122761	0.0	1.1163613505005086	-0.4121112465780018	0.0
9	0.3018987341772152	0.9730890034509665	-0.5744868014357146	0.0	0.9751102741638845	-0.572667469190904	0.0	0.9739235376177128	-0.6748604875341834	0.0	0.967470257419096	-0.7706580180451674	0.0	0.9978212064858485	-0.788152873158846	0.0	0.9912733646998269	-0.7918427267330339	0.0	0.9590122782689144	-0.7842891080610312	0.0	0.9723767642010688	-0.5700776919338343	0.0	0.9736463704573307	-0.6723200152784788	0.0	0.968216367360996	-0.764850409703826	0.0	0.9939783084130368	-0.7840352721178359	0.0	0.9916891832560601	-0.7811533134045742	0.0	0.960093237694121	-0.7749761960152387	0.0	1.001169435696835	-0.44579650198530457	0.0	1.0123864358797205	-0.38373116989700523	0.0	1.0306695954737282	-0.4178120745332949	0.0	1.0013155049699292	-0.45435023621255904	0.0	1.0687784646951228	-0.4517977546097539	0.0	1.1268292526459478	-0.4458414354845261	0.0	0.9937918402530047	-0.4509114958305369	0.0	1.0650310552791482	-0.4485333457359139	0.0	1.122329686925432	-0.43934063145988184	0.0
10	0.33544303797468356	0.9710600513353576	-0.5762897805997067	0.0	0.9730936626946419	-0.5739133963766361	0.0	0.9725560063116172	-0.6756864995110168	0.0	0.9671035382442021	-0.7716504504911329	0.0	0.9982973369929711	-0.7887218747279917	0.0	0.9916875356750205	-0.792390287968602	0.0	0.958855938492625	-0.785129892853788	0.0	0.971068817646828	-0.5718573812418046	0.0	0.9726078026346678	-0.6734072220541165	0.0	0.9678639955851696	-0.7661018748605912	0.0	0.9950057790781428	-0.7853648912989838	0.0	0.992904012458096	-0.7826090244114579	0.0	0.9597770535278927	-0.7768857414492376	0.0	1.0028136422436833	-0.44807714561497897	0.0	1.014277946990535	-0.38567005806288784	0.0	1.0326559373480775	-0.4211877717760613	0.0	1.0023946987017103	-0.457570874292885	0.0	1.0672760714980556	-0.4700980743063526	0.0	1.1247710803677469	-0.4792945338551407	0.0	0.9956827664633212	-0.45463143584065924	0.0	1.065519513513626	-0.4653391061167243	0.0	1.122252098078573	-0.46937575424115013	0.0
